<svg width="50" height="50" viewBox="0 0 50 50" fill="#5F5D5D" xmlns="http://www.w3.org/2000/svg">
<path fill-rule="evenodd" clip-rule="evenodd" d="M25 47.9166C12.3435 47.9166 2.08331 37.6564 2.08331 24.9999C2.08331 12.3434 12.3435 2.08325 25 2.08325C37.6565 2.08325 47.9166 12.3434 47.9166 24.9999C47.9166 37.6564 37.6565 47.9166 25 47.9166ZM25 43.7499C35.3553 43.7499 43.75 35.3553 43.75 24.9999C43.75 14.6446 35.3553 6.24992 25 6.24992C14.6446 6.24992 6.24998 14.6446 6.24998 24.9999C6.24998 35.3553 14.6446 43.7499 25 43.7499ZM35.4166 22.9166H27.0833V14.5833H22.9166V22.9166H14.5833V27.0833H22.9166V35.4166H27.0833V27.0833H35.4166V22.9166Z" fill="#A6A4A4"/>
</svg>
