<svg width="40" height="40" viewBox="0 0 40 40" fill="#5F5D5D" xmlns="http://www.w3.org/2000/svg">
<path fill-rule="evenodd" clip-rule="evenodd" d="M13.3333 9.99992H9.99998V8.33325H6.66664V13.3333H33.3333V8.33325H30V9.99992H26.6666V8.33325H13.3333V9.99992ZM33.3333 16.6666H6.66664V33.3332H33.3333V16.6666ZM26.6666 4.99993H13.3333V3.33325H9.99998V4.99993H6.66665C4.8257 4.99993 3.33331 6.49232 3.33331 8.33327V33.3333C3.33331 35.1742 4.8257 36.6666 6.66665 36.6666H33.3333C35.1743 36.6666 36.6666 35.1742 36.6666 33.3333V8.33327C36.6666 6.49232 35.1743 4.99993 33.3333 4.99993H30V3.33325H26.6666V4.99993ZM15 23.3333H11.6666V19.9999H15V23.3333ZM18.3333 23.3333H21.6666V19.9999H18.3333V23.3333ZM28.3333 23.3333H25V19.9999H28.3333V23.3333ZM11.6666 29.9999H15V26.6666H11.6666V29.9999ZM21.6666 29.9999H18.3333V26.6666H21.6666V29.9999Z" fill="#5F5D5D"/>
</svg>
