<svg width="40" height="40" viewBox="0 0 40 40" fill="#5F5D5D" xmlns="http://www.w3.org/2000/svg">
<path fill-rule="evenodd" clip-rule="evenodd" d="M20 38.3334C9.87477 38.3334 1.66666 30.1253 1.66666 20.0001C1.66666 9.87486 9.87477 1.66675 20 1.66675C30.1252 1.66675 38.3333 9.87486 38.3333 20.0001C38.3333 30.1253 30.1252 38.3334 20 38.3334ZM20 35.0001C28.2843 35.0001 35 28.2844 35 20.0001C35 11.7158 28.2843 5.0001 20 5.0001C11.7157 5.0001 4.99999 11.7158 4.99999 20.0001C4.99999 28.2844 11.7157 35.0001 20 35.0001ZM28.3333 18.3334H21.6667V10.0001H18.3333V21.6668H28.3333V18.3334Z" fill="#5F5D5D"/>
</svg>
