<svg width="40" height="40" viewBox="0 0 40 40" fill="#5F5D5D" xmlns="http://www.w3.org/2000/svg">
<path fill-rule="evenodd" clip-rule="evenodd" d="M20 38.3334C9.8748 38.3334 1.66669 30.1253 1.66669 20.0001C1.66669 9.87486 9.8748 1.66675 20 1.66675C30.1252 1.66675 38.3334 9.87486 38.3334 20.0001C38.3334 30.1253 30.1252 38.3334 20 38.3334ZM32.3325 28.5411C34.0144 26.1173 35 23.1738 35 20.0001C35 11.7158 28.2843 5.00006 20 5.00006C11.7157 5.00006 5.00002 11.7158 5.00002 20.0001C5.00002 23.1738 5.98565 26.1173 7.66752 28.5411C9.54327 26.0635 13.951 25.0001 20 25.0001C26.049 25.0001 30.4568 26.0635 32.3325 28.5411ZM29.9412 31.233C29.4534 29.479 25.949 28.3334 20 28.3334C14.051 28.3334 10.5467 29.479 10.0589 31.233C12.7055 33.577 16.1866 35.0001 20 35.0001C23.8134 35.0001 27.2945 33.577 29.9412 31.233ZM20 10.0001C15.9652 10.0001 13.3334 12.9263 13.3334 16.6667C13.3334 22.379 16.2681 25.0001 20 25.0001C23.6968 25.0001 26.6667 22.4661 26.6667 17.0001C26.6667 13.2027 24.0237 10.0001 20 10.0001ZM16.6667 16.6668C16.6667 20.4489 18.0304 21.6668 20 21.6668C21.9629 21.6668 23.3334 20.4974 23.3334 17.0001C23.3334 14.9175 22.0261 13.3334 20 13.3334C17.8896 13.3334 16.6667 14.6931 16.6667 16.6668Z" fill="#5F5D5D"/>
</svg>
