<svg width="40" height="40" viewBox="0 0 40 40" fill="#5F5D5D" xmlns="http://www.w3.org/2000/svg">
<path fill-rule="evenodd" clip-rule="evenodd" d="M20 38.8794L21.0962 37.9222C30.3145 29.873 35 22.8447 35 16.6667C35 7.91785 28.1716 1.66675 20 1.66675C11.8284 1.66675 5 7.91785 5 16.6667C5 22.8447 9.68551 29.873 18.9038 37.9222L20 38.8794ZM20 34.4391C12.1777 27.3893 8.33333 21.4155 8.33333 16.6667C8.33333 9.82775 13.6069 5.00008 20 5.00008C26.3931 5.00008 31.6667 9.82775 31.6667 16.6667C31.6667 21.4155 27.8223 27.3893 20 34.4391ZM20 8.33341C24.6024 8.33341 28.3333 12.0644 28.3333 16.6667C28.3333 21.2691 24.6024 25.0001 20 25.0001C15.3976 25.0001 11.6667 21.2691 11.6667 16.6667C11.6667 12.0644 15.3976 8.33341 20 8.33341ZM15 16.6667C15 13.9053 17.2386 11.6667 20 11.6667C22.7614 11.6667 25 13.9053 25 16.6667C25 19.4282 22.7614 21.6667 20 21.6667C17.2386 21.6667 15 19.4282 15 16.6667Z" fill="#5F5D5D"/>
</svg>
